<?xml version="1.0" encoding="UTF-8" standalone="no"?><!DOCTYPE svg PUBLIC "-//W3C//DTD SVG 1.1//EN" "http://www.w3.org/Graphics/SVG/1.1/DTD/svg11.dtd"><svg width="100%" height="100%" viewBox="0 0 876 221" version="1.1" xmlns="http://www.w3.org/2000/svg" xmlns:xlink="http://www.w3.org/1999/xlink" xml:space="preserve" xmlns:serif="http://www.serif.com/" style="fill-rule:evenodd;clip-rule:evenodd;stroke-linejoin:round;stroke-miterlimit:2;"><rect id="Prancheta3" x="0" y="0" width="875.354" height="220.232" style="fill:none;"/><clipPath id="_clip1"><rect x="0" y="0" width="875.354" height="220.232"/></clipPath><g clip-path="url(#_clip1)"><rect x="1.104" y="1.652" width="215.795" height="220.232" style="fill:#fff;fill-opacity:0.2;"/><g><path d="M50.851,61.768c0,3.067 0.567,5.934 1.7,8.6c1.133,2.667 2.683,4.984 4.65,6.95c1.967,1.967 4.25,3.517 6.85,4.65c2.6,1.134 5.4,1.7 8.4,1.7c3,0 5.8,-0.566 8.4,-1.7c2.6,-1.133 4.883,-2.683 6.85,-4.65c1.967,-1.966 3.517,-4.283 4.65,-6.95c1.133,-2.666 1.7,-5.533 1.7,-8.6c0,-3.066 -0.567,-5.933 -1.7,-8.6c-1.133,-2.666 -2.683,-4.983 -4.65,-6.95c-1.967,-1.966 -4.25,-3.516 -6.85,-4.65c-2.6,-1.133 -5.4,-1.7 -8.4,-1.7c-3,0 -5.8,0.567 -8.4,1.7c-2.6,1.134 -4.883,2.684 -6.85,4.65c-1.967,1.967 -3.517,4.284 -4.65,6.95c-1.133,2.667 -1.7,5.534 -1.7,8.6Zm65.1,36.3l-42.9,0c-5.533,0 -10.65,-0.816 -15.35,-2.45c-4.7,-1.633 -8.75,-4.016 -12.15,-7.15c-3.4,-3.133 -6.067,-6.933 -8,-11.4c-1.933,-4.466 -2.9,-9.566 -2.9,-15.3c0,-5.333 0.983,-10.233 2.95,-14.7c1.967,-4.466 4.65,-8.3 8.05,-11.5c3.4,-3.2 7.4,-5.683 12,-7.45c4.6,-1.766 9.533,-2.65 14.8,-2.65c5.267,0 10.2,0.9 14.8,2.7c4.6,1.8 8.6,4.3 12,7.5c3.4,3.2 6.083,7.017 8.05,11.45c1.967,4.434 2.95,9.317 2.95,14.65c0,2.534 -0.283,5 -0.85,7.4c-0.567,2.4 -1.417,4.667 -2.55,6.8c-1.133,2.134 -2.6,4.05 -4.4,5.75c-1.8,1.7 -3.9,3.084 -6.3,4.15l0,0.2l19.8,0l0,12Z" style="fill:#fff;fill-rule:nonzero;"/><path d="M183.351,70.768c0,4.2 -0.633,8.067 -1.9,11.6c-1.267,3.534 -3.15,6.6 -5.65,9.2c-2.5,2.6 -5.617,4.634 -9.35,6.1c-3.733,1.467 -8.033,2.2 -12.9,2.2c-4.933,0 -9.267,-0.733 -13,-2.2c-3.733,-1.466 -6.85,-3.5 -9.35,-6.1c-2.5,-2.6 -4.383,-5.666 -5.65,-9.2c-1.267,-3.533 -1.9,-7.4 -1.9,-11.6l0,-43.5l15.6,0l0,42.9c0,2.2 0.35,4.234 1.05,6.1c0.7,1.867 1.683,3.484 2.95,4.85c1.267,1.367 2.783,2.434 4.55,3.2c1.767,0.767 3.683,1.15 5.75,1.15c2.067,0 3.967,-0.383 5.7,-1.15c1.733,-0.766 3.233,-1.833 4.5,-3.2c1.267,-1.366 2.25,-2.983 2.95,-4.85c0.7,-1.866 1.05,-3.9 1.05,-6.1l0,-42.9l15.6,0l0,43.5Z" style="fill:#fff;fill-rule:nonzero;"/><rect x="38.251" y="127.268" width="15.6" height="70.8" style="fill:#fff;fill-rule:nonzero;"/><path d="M64.351,183.668l35.9,-42.6l-34.6,0l0,-13.8l53.5,0l0,13.8l-35.2,42.6l36.4,0l0,14.4l-56,0l0,-14.4Z" style="fill:#fff;fill-rule:nonzero;"/><path d="M127.351,183.668l35.9,-42.6l-34.6,0l0,-13.8l53.5,0l0,13.8l-35.2,42.6l36.4,0l0,14.4l-56,0l0,-14.4Z" style="fill:#fff;fill-rule:nonzero;"/></g><g><path d="M292.858,109.968c0,6.134 1.133,11.867 3.4,17.2c2.266,5.334 5.366,9.967 9.3,13.9c3.933,3.934 8.5,7.034 13.7,9.3c5.2,2.267 10.8,3.4 16.8,3.4c6,0 11.6,-1.133 16.8,-3.4c5.2,-2.266 9.766,-5.366 13.7,-9.3c3.933,-3.933 7.033,-8.566 9.3,-13.9c2.266,-5.333 3.4,-11.066 3.4,-17.2c0,-6.133 -1.134,-11.866 -3.4,-17.2c-2.267,-5.333 -5.367,-9.966 -9.3,-13.9c-3.934,-3.933 -8.5,-7.033 -13.7,-9.3c-5.2,-2.266 -10.8,-3.4 -16.8,-3.4c-6,0 -11.6,1.134 -16.8,3.4c-5.2,2.267 -9.767,5.367 -13.7,9.3c-3.934,3.934 -7.034,8.567 -9.3,13.9c-2.267,5.334 -3.4,11.067 -3.4,17.2Zm130.2,72.6l-85.8,0c-11.067,0 -21.3,-1.633 -30.7,-4.9c-9.4,-3.266 -17.5,-8.033 -24.3,-14.3c-6.8,-6.266 -12.134,-13.866 -16,-22.8c-3.867,-8.933 -5.8,-19.133 -5.8,-30.6c0,-10.666 1.966,-20.466 5.9,-29.4c3.933,-8.933 9.3,-16.6 16.1,-23c6.8,-6.4 14.8,-11.366 24,-14.9c9.2,-3.533 19.066,-5.3 29.6,-5.3c10.533,0 20.4,1.8 29.6,5.4c9.2,3.6 17.2,8.6 24,15c6.8,6.4 12.166,14.034 16.1,22.9c3.933,8.867 5.9,18.634 5.9,29.3c0,5.067 -0.567,10 -1.7,14.8c-1.134,4.8 -2.834,9.334 -5.1,13.6c-2.267,4.267 -5.2,8.1 -8.8,11.5c-3.6,3.4 -7.8,6.167 -12.6,8.3l0,0.4l39.6,0l0,24Z" style="fill:#fff;fill-rule:nonzero;"/><path d="M557.858,127.968c0,8.4 -1.267,16.134 -3.8,23.2c-2.534,7.067 -6.3,13.2 -11.3,18.4c-5,5.2 -11.234,9.267 -18.7,12.2c-7.467,2.934 -16.067,4.4 -25.8,4.4c-9.867,0 -18.534,-1.466 -26,-4.4c-7.467,-2.933 -13.7,-7 -18.7,-12.2c-5,-5.2 -8.767,-11.333 -11.3,-18.4c-2.534,-7.066 -3.8,-14.8 -3.8,-23.2l0,-87l31.2,0l0,85.8c0,4.4 0.7,8.467 2.1,12.2c1.4,3.734 3.366,6.967 5.9,9.7c2.533,2.734 5.566,4.867 9.1,6.4c3.533,1.534 7.366,2.3 11.5,2.3c4.133,0 7.933,-0.766 11.4,-2.3c3.466,-1.533 6.466,-3.666 9,-6.4c2.533,-2.733 4.5,-5.966 5.9,-9.7c1.4,-3.733 2.1,-7.8 2.1,-12.2l0,-85.8l31.2,0l0,87Z" style="fill:#fff;fill-rule:nonzero;"/><rect x="586.258" y="40.968" width="31.2" height="141.6" style="fill:#fff;fill-rule:nonzero;"/><path d="M638.458,153.768l71.8,-85.2l-69.2,0l0,-27.6l107,0l0,27.6l-70.4,85.2l72.8,0l0,28.8l-112,0l0,-28.8Z" style="fill:#ff6000;fill-rule:nonzero;"/><path d="M876.458,153.768l-71.8,-85.2l69.2,0l0,-27.6l-107,0l0,27.6l70.4,85.2l-72.8,0l0,28.8l112,0l0,-28.8Z" style="fill:#fff;fill-rule:nonzero;"/></g></g></svg>